                        <svg id="Layer_1" fill="#3b82f6" enable-background="new 0 0 512 512" height="32" viewBox="0 0 512 512" width="32" xmlns="http://www.w3.org/2000/svg">
                          <path d="m496 176c8.837 0 16-7.164 16-16v-48c0-8.836-7.163-16-16-16s-16 7.164-16 16v32h-48c0-35.29-28.71-64-64-64v-48h32c8.837 0 16-7.164 16-16s-7.163-16-16-16h-48c-8.837 0-16 7.164-16 16v64h-32v-64c0-8.836-7.163-16-16-16s-16 7.164-16 16v64h-32v-64c0-8.836-7.163-16-16-16s-16 7.164-16 16v64h-32v-64c0-8.836-7.163-16-16-16h-48c-8.837 0-16 7.164-16 16s7.163 16 16 16h32v48c-35.29 0-64 28.71-64 64h-48v-32c0-8.836-7.163-16-16-16s-16 7.164-16 16v48c0 8.836 7.163 16 16 16h64v32h-64c-8.837 0-16 7.164-16 16s7.163 16 16 16h64v32h-64c-8.837 0-16 7.164-16 16s7.163 16 16 16h64v32h-64c-8.837 0-16 7.164-16 16v48c0 8.836 7.163 16 16 16s16-7.164 16-16v-32h48c0 35.29 28.71 64 64 64v48h-32c-8.837 0-16 7.164-16 16s7.163 16 16 16h48c8.837 0 16-7.164 16-16v-64h32v64c0 8.836 7.163 16 16 16s16-7.164 16-16v-64h32v64c0 8.836 7.163 16 16 16s16-7.164 16-16v-64h32v64c0 8.836 7.163 16 16 16h48c8.837 0 16-7.164 16-16s-7.163-16-16-16h-32v-48c35.29 0 64-28.71 64-64h48v32c0 8.836 7.163 16 16 16s16-7.164 16-16v-48c0-8.836-7.163-16-16-16h-64v-32h64c8.837 0 16-7.164 16-16s-7.163-16-16-16h-64v-32h64c8.837 0 16-7.164 16-16s-7.163-16-16-16h-64v-32zm-144 192h-192c-8.84 0-16-7.16-16-16v-192c0-8.84 7.16-16 16-16h192c8.84 0 16 7.16 16 16v192c0 8.84-7.16 16-16 16z"/>
                          <path d="m176 336h160v-160h-160zm64-48h48v-48c0-8.84 7.16-16 16-16s16 7.16 16 16v64c0 8.84-7.16 16-16 16h-64c-8.84 0-16-7.16-16-16s7.16-16 16-16z"/>
                        </svg>