                        <svg xmlns="http://www.w3.org/2000/svg" fill="#3b82f6" xmlns:xlink="http://www.w3.org/1999/xlink" version="1.1" id="Layer_1" x="0px" y="0px" viewBox="0 0 59.965 59.965" style="enable-background:new 0 0 59.965 59.965;" xml:space="preserve" width="32" height="32">
                          <path d="M59.703,23.868l-3.424-3.424l2.047-2.047c0.391-0.391,0.391-1.023,0-1.414L42.547,1.204c-1.56-1.56-4.098-1.56-5.658,0    l-5.433,5.433l3.461,3.461c0.188,0.188,0.293,0.442,0.293,0.707s-0.105,0.52-0.293,0.707L11.508,34.921    c-0.195,0.195-0.451,0.293-0.707,0.293s-0.512-0.098-0.707-0.293L6.633,31.46L1.2,36.893c-1.56,1.56-1.56,4.098,0,5.658    L16.979,58.33c0.195,0.195,0.451,0.293,0.707,0.293s0.512-0.098,0.707-0.293l2.047-2.047l3.424,3.424    C24.058,59.902,24.314,60,24.57,60s0.512-0.098,0.707-0.293l34.425-34.425C60.093,24.892,60.093,24.259,59.703,23.868z     M36.257,7.345l2.754-2.754c0.39-0.391,1.024-0.391,1.414,0l2.754,2.754c0.391,0.391,0.391,1.023,0,1.414l-2.754,2.754    c-0.195,0.195-0.451,0.293-0.707,0.293s-0.512-0.098-0.707-0.293l-2.754-2.754C35.866,8.368,35.866,7.735,36.257,7.345z     M34.191,19.086c-0.391-0.391-0.391-1.023,0-1.414l4.131-4.131c0.39-0.391,1.023-0.391,1.414,0l0.67,0.67l0.67-0.67    c0.39-0.391,1.024-0.391,1.414,0c0.391,0.391,0.391,1.023,0,1.414l-0.67,0.67l1.34,1.34l0.67-0.67c0.39-0.391,1.024-0.391,1.414,0    c0.391,0.391,0.391,1.023,0,1.414l-0.67,0.67l1.34,1.34l0.67-0.67c0.39-0.391,1.024-0.391,1.414,0    c0.391,0.391,0.391,1.023,0,1.414l-0.67,0.67l0.67,0.67c0.391,0.391,0.391,1.023,0,1.414l-4.131,4.131    c-0.188,0.188-0.442,0.293-0.707,0.293s-0.52-0.105-0.707-0.293l-0.67-0.67l-0.67,0.67c-0.195,0.195-0.451,0.293-0.707,0.293    s-0.512-0.098-0.707-0.293c-0.391-0.39-0.391-1.023,0-1.414l0.67-0.67l-1.34-1.34l-0.67,0.67    c-0.195,0.195-0.451,0.293-0.707,0.293s-0.512-0.098-0.707-0.293c-0.391-0.391-0.391-1.023,0-1.414l0.67-0.67l-1.34-1.34    l-0.67,0.67c-0.195,0.195-0.451,0.293-0.707,0.293s-0.512-0.098-0.707-0.293c-0.391-0.391-0.391-1.023,0-1.414l0.67-0.67    L34.191,19.086z M23.864,29.414c-0.391-0.391-0.391-1.023,0-1.414l4.131-4.131c0.375-0.375,1.039-0.375,1.414,0l0.67,0.67    l0.67-0.67c0.39-0.391,1.024-0.391,1.414,0c0.391,0.391,0.391,1.023,0,1.414l-0.67,0.67l1.34,1.34l0.67-0.67    c0.39-0.391,1.024-0.391,1.414,0c0.391,0.391,0.391,1.023,0,1.414l-0.67,0.67l1.34,1.34l0.67-0.67c0.39-0.391,1.024-0.391,1.414,0    c0.391,0.391,0.391,1.023,0,1.414L37,31.461l0.67,0.67c0.391,0.391,0.391,1.023,0,1.414l-4.131,4.131    c-0.195,0.195-0.451,0.293-0.707,0.293s-0.512-0.098-0.707-0.293l-0.67-0.67l-0.67,0.67c-0.195,0.195-0.451,0.293-0.707,0.293    s-0.512-0.098-0.707-0.293c-0.391-0.391-0.391-1.023,0-1.414l0.67-0.67l-1.34-1.34l-0.67,0.67    c-0.195,0.195-0.451,0.293-0.707,0.293s-0.512-0.098-0.707-0.293c-0.391-0.391-0.391-1.023,0-1.414l0.67-0.67l-1.34-1.34    l-0.67,0.67c-0.195,0.195-0.451,0.293-0.707,0.293s-0.512-0.098-0.707-0.293c-0.391-0.391-0.391-1.023,0-1.414l0.67-0.67    L23.864,29.414z M11.508,40.429l-2.754,2.754c-0.195,0.195-0.451,0.293-0.707,0.293s-0.512-0.098-0.707-0.293l-2.754-2.754    c-0.391-0.391-0.391-1.023,0-1.414l2.754-2.754c0.39-0.391,1.023-0.391,1.414,0l2.754,2.754c0.188,0.188,0.293,0.442,0.293,0.707    S11.696,40.242,11.508,40.429z M19.044,46.588l0.67-0.67l-1.34-1.34l-0.67,0.67c-0.195,0.195-0.451,0.293-0.707,0.293    s-0.512-0.098-0.707-0.293c-0.391-0.391-0.391-1.023,0-1.414l0.67-0.67l-1.34-1.34l-0.67,0.67    c-0.195,0.195-0.451,0.293-0.707,0.293s-0.512-0.098-0.707-0.293c-0.391-0.391-0.391-1.023,0-1.414l0.67-0.67l-0.67-0.67    c-0.188-0.188-0.293-0.442-0.293-0.707s0.105-0.52,0.293-0.707l4.131-4.131c0.39-0.391,1.023-0.391,1.414,0l0.67,0.67l0.67-0.67    c0.39-0.391,1.024-0.391,1.414,0c0.391,0.391,0.391,1.023,0,1.414l-0.67,0.67l1.34,1.34l0.67-0.67c0.39-0.391,1.024-0.391,1.414,0    c0.391,0.391,0.391,1.023,0,1.414l-0.67,0.67l1.34,1.34l0.67-0.67c0.39-0.391,1.024-0.391,1.414,0    c0.391,0.391,0.391,1.023,0,1.414l-0.67,0.67l0.67,0.67c0.188,0.188,0.293,0.442,0.293,0.707s-0.105,0.52-0.293,0.707    l-4.131,4.131c-0.195,0.195-0.451,0.293-0.707,0.293s-0.512-0.098-0.707-0.293l-0.67-0.67l-0.67,0.67    c-0.195,0.195-0.451,0.293-0.707,0.293s-0.512-0.098-0.707-0.293C18.654,47.612,18.654,46.979,19.044,46.588z M24.571,57.586    l-2.717-2.717l2.028-2.028l0.67,0.67c0.195,0.195,0.451,0.293,0.707,0.293s0.512-0.098,0.707-0.293    c0.391-0.391,0.391-1.023,0-1.414l-0.67-0.67l1.34-1.34l0.67,0.67c0.195,0.195,0.451,0.293,0.707,0.293s0.512-0.098,0.707-0.293    c0.391-0.391,0.391-1.023,0-1.414l-0.67-0.67l1.34-1.34l0.669,0.67c0.195,0.195,0.451,0.293,0.707,0.293s0.512-0.098,0.707-0.293    c0.391-0.391,0.391-1.023,0-1.414l-0.669-0.67l1.34-1.34l0.67,0.67c0.195,0.195,0.451,0.293,0.707,0.293s0.512-0.098,0.707-0.293    c0.391-0.391,0.391-1.024,0-1.414l-0.67-0.67l1.34-1.34l0.67,0.67c0.195,0.195,0.451,0.293,0.707,0.293s0.512-0.098,0.707-0.293    c0.391-0.391,0.391-1.023,0-1.414l-0.67-0.67l1.34-1.34l0.67,0.67c0.195,0.195,0.451,0.293,0.707,0.293s0.512-0.098,0.707-0.293    c0.391-0.391,0.391-1.023,0-1.414l-0.67-0.67l1.34-1.34l0.67,0.67c0.195,0.195,0.451,0.293,0.707,0.293s0.512-0.098,0.707-0.293    c0.391-0.391,0.391-1.023,0-1.414l-0.67-0.67l1.34-1.34l0.67,0.67c0.195,0.195,0.451,0.293,0.707,0.293s0.512-0.098,0.707-0.293    c0.391-0.391,0.391-1.023,0-1.414l-0.67-0.67l1.34-1.34l0.67,0.67c0.195,0.195,0.451,0.293,0.707,0.293s0.512-0.098,0.707-0.293    c0.391-0.391,0.391-1.023,0-1.414l-0.67-0.67l1.34-1.34l0.67,0.67c0.195,0.195,0.451,0.293,0.707,0.293s0.512-0.098,0.707-0.293    c0.391-0.391,0.391-1.023,0-1.414l-0.67-0.67l1.34-1.34l0.669,0.67c0.195,0.195,0.451,0.293,0.707,0.293s0.512-0.098,0.707-0.293    c0.391-0.391,0.391-1.023,0-1.414l-0.669-0.67l2.028-2.028l2.716,2.717L24.571,57.586z"/>
                          <rect x="18.545" y="36.217" transform="matrix(0.7071 -0.7071 0.7071 0.7071 -23.0384 26.4975)" width="3.842" height="9.684"/>
                          <rect x="6.915" y="38.596" transform="matrix(0.7072 -0.707 0.707 0.7072 -25.6553 17.1366)" width="1.895" height="1.895"/>
                          <rect x="4.802" y="18.376" transform="matrix(0.7071 -0.7071 0.7071 0.7071 -8.4094 20.3458)" width="31.105" height="3.895"/>
                          <rect x="38.587" y="6.925" transform="matrix(0.7072 -0.707 0.707 0.7072 6.0097 30.2565)" width="1.895" height="1.895"/>
                          <rect x="29.022" y="25.988" transform="matrix(0.7071 -0.7071 0.7071 0.7071 -12.7369 30.9099)" width="3.842" height="9.684"/>
                          <polygon points="42.49,24.557 42.491,24.557 43.16,25.227 45.877,22.51 39.029,15.662 36.312,18.379 42.49,24.556   "/>
                        </svg>  