                        <svg id="Capa_1" fill="#3b82f6" enable-background="new 0 0 512 512" height="32" viewBox="0 0 512 512" width="32" xmlns="http://www.w3.org/2000/svg"><g><g>
                          <path d="m0 0v112h512v-112zm91 71h-30v-30h30zm60 0h-30v-30h30zm60 0h-30v-30h30zm240 0h-150v-30h150z"/></g><g>
                          <path d="m0 202v110h512v-110zm91 70h-30v-30h30zm60 0h-30v-30h30zm60 0h-30v-30h30zm240 0h-150v-30h150z"/></g><g>
                          <path d="m0 402v110h512v-110zm91 70h-30v-30h30zm60 0h-30v-30h30zm60 0h-30v-30h30zm240 0h-150v-30h150z"/></g><g>
                          <path d="m31 142h450v30h-450z"/></g><g><path d="m31 342h450v30h-450z"/></g></g>
                      </svg>